<svg width="122" height="48" viewBox="0 0 122 48" fill="none" xmlns="http://www.w3.org/2000/svg">
<path d="M19.7445 33.0576H9.97342L8.13885 39H0.960118L11.2895 10.4845H18.4683L28.7578 39H21.579L19.7445 33.0576ZM11.6086 27.5938H18.1492L14.9188 17.065H14.839L11.6086 27.5938ZM30.4035 10.4845H36.7846V39H30.4035V10.4845ZM39.7898 10.4845H46.1709V39H39.7898V10.4845Z" fill="#6E6CFF"/>
<path d="M72.9542 10.4845H80.1329V22.0502L90.0635 10.4845H98.4387L87.5909 23.0473L98.8375 39H90.4624L83.0044 28.192L80.1329 31.4623V39H72.9542V10.4845Z" fill="#6E6CFF"/>
<circle cx="110.5" cy="16.2222" r="10.2222" fill="#EEFFF7"/>
<path d="M117.728 23.4504C119.157 22.0208 120.131 20.1994 120.525 18.2165C120.92 16.2336 120.717 14.1782 119.944 12.3103C119.17 10.4425 117.86 8.84599 116.179 7.72276C114.498 6.59952 112.521 6 110.5 6C108.478 6 106.501 6.59952 104.82 7.72275C103.139 8.84599 101.829 10.4425 101.055 12.3103C100.282 14.1782 100.079 16.2336 100.474 18.2165C100.868 20.1994 101.842 22.0208 103.271 23.4504L104.45 22.2719C103.253 21.0754 102.438 19.551 102.108 17.8913C101.778 16.2317 101.948 14.5115 102.595 12.9481C103.243 11.3848 104.339 10.0486 105.746 9.10851C107.153 8.16841 108.807 7.66663 110.5 7.66663C112.192 7.66663 113.846 8.16841 115.253 9.10851C116.66 10.0486 117.756 11.3848 118.404 12.9481C119.051 14.5115 119.221 16.2317 118.891 17.8913C118.561 19.551 117.746 21.0754 116.549 22.2719L117.728 23.4504Z" fill="#00D576"/>
<path d="M114.791 12.9582C114.793 13.1079 114.738 13.2528 114.636 13.3623L109.628 18.3697C109.52 18.4779 109.373 18.5387 109.22 18.5387C109.067 18.5387 108.92 18.4779 108.812 18.3697L106.501 16.0586C106.399 15.949 106.343 15.8042 106.346 15.6545C106.348 15.5048 106.409 15.362 106.515 15.2561C106.621 15.1503 106.764 15.0896 106.913 15.087C107.063 15.0844 107.208 15.1399 107.317 15.242L109.22 17.1448L113.819 12.5457C113.929 12.4436 114.074 12.3881 114.223 12.3907C114.373 12.3934 114.516 12.454 114.622 12.5599C114.727 12.6657 114.788 12.8085 114.791 12.9582Z" fill="#00D576"/>
<circle cx="110.5" cy="31.5547" r="11.5" fill="#FFEDF0"/>
<path d="M122 31.5547C122 37.906 116.851 43.0547 110.5 43.0547C104.149 43.0547 99 37.906 99 31.5547C99 25.2034 104.149 20.0547 110.5 20.0547C116.851 20.0547 122 25.2034 122 31.5547ZM100.803 31.5547C100.803 36.91 105.145 41.2514 110.5 41.2514C115.855 41.2514 120.197 36.91 120.197 31.5547C120.197 26.1994 115.855 21.858 110.5 21.858C105.145 21.858 100.803 26.1994 100.803 31.5547Z" fill="#FF4465"/>
<rect x="105.387" y="30.2773" width="10.2216" height="2.55539" rx="1.2777" fill="#FF4465"/>
<circle cx="59.5" cy="27.5" r="11.5" fill="#EEF7FF"/>
<path d="M60.7664 24.6831C60.5223 24.9271 60.5223 25.3229 60.7664 25.5669L62.8244 27.625L60.7664 29.6831C60.5223 29.9271 60.5223 30.3229 60.7664 30.5669C61.0105 30.811 61.4062 30.811 61.6503 30.5669L64.1503 28.0669C64.3944 27.8229 64.3944 27.4271 64.1503 27.1831L61.6503 24.6831C61.4062 24.439 61.0105 24.439 60.7664 24.6831Z" fill="#48A0F8"/>
<path d="M58.3169 25.5669C58.561 25.3229 58.561 24.9271 58.3169 24.6831C58.0729 24.439 57.6771 24.439 57.4331 24.6831L54.9331 27.1831C54.689 27.4271 54.689 27.8229 54.9331 28.0669L57.4331 30.5669C57.6771 30.811 58.0729 30.811 58.3169 30.5669C58.561 30.3229 58.561 29.9271 58.3169 29.6831L56.2589 27.625L58.3169 25.5669Z" fill="#48A0F8"/>
<path d="M71 27.5C71 33.8513 65.8513 39 59.5 39C53.1487 39 48 33.8513 48 27.5C48 21.1487 53.1487 16 59.5 16C65.8513 16 71 21.1487 71 27.5ZM49.7249 27.5C49.7249 32.8986 54.1014 37.2751 59.5 37.2751C64.8986 37.2751 69.2751 32.8986 69.2751 27.5C69.2751 22.1014 64.8986 17.7249 59.5 17.7249C54.1014 17.7249 49.7249 22.1014 49.7249 27.5Z" fill="#48A0F8"/>
</svg>
