<svg width="42" height="42" viewBox="0 0 42 42" fill="none" xmlns="http://www.w3.org/2000/svg">
<circle cx="20.5426" cy="20.5446" r="14.5289" fill="white"/>
<path d="M20.7364 35.0729C23.2865 35.0394 25.7828 34.3352 27.9746 33.0312C30.1663 31.7271 31.9761 29.8691 33.2222 27.6439C34.4682 25.4187 35.1066 22.9047 35.0731 20.3545C35.0396 17.8044 34.3355 15.308 33.0315 13.1163L30.9957 14.3275C32.0872 16.1619 32.6765 18.2513 32.7045 20.3856C32.7325 22.52 32.1982 24.6241 31.1553 26.4865C30.1124 28.3489 28.5977 29.904 26.7633 30.9955C24.9289 32.0869 22.8396 32.6763 20.7052 32.7043L20.7364 35.0729Z" fill="#00D576"/>
<path d="M33.0326 13.1182C31.7288 10.9262 29.8711 9.1161 27.6461 7.86968C25.4211 6.62326 22.9072 5.98447 20.3571 6.01753C17.807 6.05059 15.3105 6.75432 13.1185 8.058C10.9266 9.36168 9.11641 11.2194 7.86995 13.4444L9.93656 14.6021C10.9798 12.7399 12.4948 11.1851 14.3294 10.0939C16.164 9.0028 18.2534 8.4138 20.3878 8.38613C22.5221 8.35846 24.6262 8.8931 26.4884 9.9363C28.3507 10.9795 29.9055 12.4945 30.9967 14.3291L33.0326 13.1182Z" fill="#48A0F8"/>
<path d="M7.86444 13.4542C6.61971 15.6802 5.98284 18.1946 6.01784 20.7446C6.05284 23.2947 6.75848 25.7907 8.06383 27.9817C9.36917 30.1726 11.2282 31.9814 13.4542 33.2261C15.6801 34.4709 18.1945 35.1078 20.7446 35.0728L20.7121 32.7043C18.5778 32.7335 16.4734 32.2005 14.6103 31.1586C12.7473 30.1168 11.1914 28.603 10.0988 26.7692C9.0063 24.9355 8.41571 22.8465 8.38642 20.7121C8.35713 18.5778 8.89016 16.4734 9.93194 14.6103L7.86444 13.4542Z" fill="#FF4465"/>
<path d="M14.9293 22.9385C14.9293 21.1813 16.1386 20.1988 17.3856 19.6508V19.613C16.4598 19.1218 15.4962 18.3282 15.4962 16.8544C15.4962 14.6059 17.6502 13.321 20.3332 13.321C23.0163 13.321 25.1703 14.6059 25.1703 16.8544C25.1703 18.3282 24.1878 19.1218 23.2808 19.613V19.6508C24.509 20.1988 25.7372 21.1813 25.7372 22.9385C25.7372 25.6216 23.3186 26.982 20.3332 26.982C17.3479 26.982 14.9293 25.6216 14.9293 22.9385ZM20.3332 18.7628C21.6559 18.7628 22.3361 18.0259 22.3361 17.1378C22.3361 16.2875 21.6559 15.5317 20.3332 15.5317C19.0106 15.5317 18.3304 16.2875 18.3304 17.1378C18.3304 18.0259 19.0106 18.7628 20.3332 18.7628ZM20.3332 24.5824C21.7126 24.5824 22.525 23.6943 22.525 22.6362C22.525 21.6159 21.7126 20.7278 20.3332 20.7278C18.9539 20.7278 18.1414 21.6159 18.1414 22.6362C18.1414 23.6943 18.9539 24.5824 20.3332 24.5824Z" fill="#6E6CFF"/>
</svg>
